<?xml version="1.0" encoding="UTF-8" standalone="no"?>
<!-- Created with Inkscape (http://www.inkscape.org/) -->

<svg
   xmlns:dc="http://purl.org/dc/elements/1.1/"
   xmlns:cc="http://creativecommons.org/ns#"
   xmlns:rdf="http://www.w3.org/1999/02/22-rdf-syntax-ns#"
   xmlns:svg="http://www.w3.org/2000/svg"
   xmlns="http://www.w3.org/2000/svg"
   xmlns:sodipodi="http://sodipodi.sourceforge.net/DTD/sodipodi-0.dtd"
   xmlns:inkscape="http://www.inkscape.org/namespaces/inkscape"
   width="210mm"
   height="297mm"
   viewBox="0 0 744.09448819 1052.3622047"
   id="svg2"
   version="1.1"
   inkscape:version="0.91 r13725"
   sodipodi:docname="there.ie logo.svg">
  <defs
     id="defs4" />
  <sodipodi:namedview
     id="base"
     pagecolor="#ffffff"
     bordercolor="#666666"
     borderopacity="1.0"
     inkscape:pageopacity="0.0"
     inkscape:pageshadow="2"
     inkscape:zoom="8"
     inkscape:cx="175.11262"
     inkscape:cy="997.04988"
     inkscape:document-units="px"
     inkscape:current-layer="layer1"
     showgrid="false"
     showguides="true"
     inkscape:guide-bbox="true"
     inkscape:window-width="1920"
     inkscape:window-height="1027"
     inkscape:window-x="-8"
     inkscape:window-y="-8"
     inkscape:window-maximized="1">
    <sodipodi:guide
       position="102.65625,1024.8884"
       orientation="0,1"
       id="guide3880" />
    <sodipodi:guide
       position="102.65625,1033.4152"
       orientation="0,1"
       id="guide3882" />
    <sodipodi:guide
       position="102.65625,1033.4152"
       orientation="-0.70710678,0.70710678"
       id="guide3928" />
    <sodipodi:guide
       position="102.65625,1024.8884"
       orientation="0.70710678,0.70710678"
       id="guide3930" />
    <sodipodi:guide
       position="84.598215,1029.1518"
       orientation="0,1"
       id="guide3932" />
    <sodipodi:guide
       position="102.63393,1038.75"
       orientation="1,0"
       id="guide3934" />
    <sodipodi:guide
       position="142.94643,1024.8884"
       orientation="-0.70710678,0.70710678"
       id="guide3936" />
    <sodipodi:guide
       position="142.92411,1033.4152"
       orientation="0.70710678,0.70710678"
       id="guide3938" />
    <sodipodi:guide
       position="134.08482,1038.1473"
       orientation="-0.70710678,0.70710678"
       id="guide3940" />
    <sodipodi:guide
       position="142.92411,1033.4152"
       orientation="1,0"
       id="guide3942" />
    <sodipodi:guide
       position="116.1875,989.65236"
       orientation="0,1"
       id="guide3959" />
    <sodipodi:guide
       position="128.44922,989.65236"
       orientation="-0.70710678,0.70710678"
       id="guide3961" />
    <sodipodi:guide
       position="117.31641,989.50783"
       orientation="0.70710678,0.70710678"
       id="guide3963" />
    <sodipodi:guide
       position="122.81055,984.01369"
       orientation="1,0"
       id="guide3965" />
  </sodipodi:namedview>
  <metadata
     id="metadata7">
    <rdf:RDF>
      <cc:Work
         rdf:about="">
        <dc:format>image/svg+xml</dc:format>
        <dc:type
           rdf:resource="http://purl.org/dc/dcmitype/StillImage" />
        <dc:title></dc:title>
      </cc:Work>
    </rdf:RDF>
  </metadata>
  <g
     inkscape:label="Layer 1"
     inkscape:groupmode="layer"
     id="layer1">
    <text
       xml:space="preserve"
       style="font-style:normal;font-weight:normal;font-size:40px;line-height:125%;font-family:sans-serif;letter-spacing:0px;word-spacing:0px;fill:#000000;fill-opacity:1;stroke:none;stroke-width:1px;stroke-linecap:butt;stroke-linejoin:miter;stroke-opacity:1"
       x="130.30968"
       y="198.78329"
       id="text3336"
       sodipodi:linespacing="125%"><tspan
         sodipodi:role="line"
         id="tspan3338"
         x="0"
         y="0"
         style="font-weight:bold;letter-spacing:-6.01999998px"><tspan
           style="font-size:20px;letter-spacing:-6.01999998px"
           id="tspan3340" /></tspan></text>
    <g
       style="font-style:normal;font-weight:normal;font-size:40px;line-height:125%;font-family:sans-serif;letter-spacing:0px;word-spacing:0px;fill:#336699;fill-opacity:1;stroke:none;stroke-width:1px;stroke-linecap:butt;stroke-linejoin:miter;stroke-opacity:1"
       id="text3810">
      <path
         inkscape:connector-curvature="0"
         d="m 102.6437,18.974553 40.3125,0 0,8.525391 -14.50195,0 0,35.214844 -11.2793,0 0,-35.214844 -14.53125,0 0,-8.525391 z"
         style="font-size:60px;fill:#336699;fill-opacity:1"
         id="path3912" />
      <path
         inkscape:connector-curvature="0"
         d="m 132.20104,30.474632 7.51953,0 0,11.113282 11.09375,0 0,-11.113282 7.51953,0 0,29.160157 -7.51953,0 0,-12.363282 -11.09375,0 0,12.363282 -7.51953,0 0,-29.160157 z"
         style="font-weight:bold;fill:#336699;fill-opacity:1"
         id="path3914" />
      <path
         inkscape:connector-curvature="0"
         d="m 160.76667,30.474632 20.29297,0 0,5.683594 -12.77344,0 0,5.429688 12.01172,0 0,5.683593 -12.01172,0 0,6.679688 13.20313,0 0,5.683594 -20.72266,0 0,-29.160157 z"
         style="font-weight:bold;fill:#336699;fill-opacity:1"
         id="path3916" />
      <path
         inkscape:connector-curvature="0"
         d="m 194.41401,43.40432 q 2.36328,0 3.37891,-0.878906 1.03515,-0.878907 1.03515,-2.890625 0,-1.992188 -1.03515,-2.851563 -1.01563,-0.859375 -3.37891,-0.859375 l -3.16406,0 0,7.480469 3.16406,0 z m -3.16406,5.195312 0,11.035157 -7.51953,0 0,-29.160157 11.48437,0 q 5.76172,0 8.4375,1.933594 2.69531,1.933594 2.69531,6.113281 0,2.890625 -1.40625,4.746094 -1.38672,1.855469 -4.19922,2.734375 1.54297,0.351563 2.75391,1.601563 1.23047,1.230468 2.48047,3.75 l 4.08203,8.28125 -8.00781,0 -3.55469,-7.246094 q -1.07422,-2.1875 -2.1875,-2.988281 -1.09375,-0.800782 -2.92969,-0.800782 l -2.1289,0 z"
         style="font-weight:bold;fill:#336699;fill-opacity:1"
         id="path3918" />
      <path
         inkscape:connector-curvature="0"
         d="m 211.64166,30.404632 20.29297,0 0,5.683594 -12.77344,0 0,5.429688 12.01172,0 0,5.683593 -12.01172,0 0,6.679688 13.20313,0 0,5.683594 -20.72266,0 0,-29.160157 z"
         style="font-weight:bold;fill:#336699;fill-opacity:1"
         id="path3920" />
      <path
         inkscape:connector-curvature="0"
         d="m 233.89954,56.774261 2.31812,0 0,2.790528 -2.31812,0 0,-2.790528 z"
         style="font-size:22.5px;fill:#336699;fill-opacity:1"
         id="path3922" />
      <path
         inkscape:connector-curvature="0"
         d="m 237.977,47.260101 2.02148,0 0,12.304688 -2.02148,0 0,-12.304688 z m 0,-4.790039 2.02148,0 0,2.559814 -2.02148,0 0,-2.559814 z"
         style="font-size:22.5px;fill:#336699;fill-opacity:1"
         id="path3924" />
      <path
         inkscape:connector-curvature="0"
         d="m 252.13213,52.907074 0,0.988769 -9.29443,0 q 0.13184,2.087403 1.25244,3.186035 1.13159,1.087647 3.14209,1.087647 1.16455,0 2.2522,-0.285645 1.09863,-0.285644 2.17529,-0.856933 l 0,1.911621 q -1.08765,0.461426 -2.23022,0.703125 -1.14258,0.241699 -2.31812,0.241699 -2.94433,0 -4.66919,-1.713867 -1.71387,-1.713867 -1.71387,-4.636231 0,-3.02124 1.62598,-4.790039 1.63696,-1.779785 4.40552,-1.779785 2.48291,0 3.92212,1.604004 1.45019,1.593018 1.45019,4.3396 z m -2.02148,-0.593262 q -0.022,-1.658936 -0.93384,-2.647705 -0.90088,-0.98877 -2.39502,-0.98877 -1.69189,0 -2.71362,0.955811 -1.01074,0.95581 -1.16455,2.69165 l 7.20703,-0.01099 z"
         style="font-size:22.5px;fill:#336699;fill-opacity:1"
         id="path3926" />
    </g>
    <path
       sodipodi:type="star"
       id="path3853"
       sodipodi:sides="3"
       sodipodi:cx="145.58823"
       sodipodi:cy="23.01676"
       sodipodi:r1="10.265916"
       sodipodi:r2="5.1329579"
       sodipodi:arg1="0"
       sodipodi:arg2="1.0471976"
       inkscape:flatsided="false"
       inkscape:rounded="0"
       inkscape:randomized="0"
       d="m 155.85414,23.01676 -7.69943,4.445272 -7.69944,4.445272 0,-8.890544 0,-8.890544 7.69944,4.445272 z"
       inkscape:transform-center-x="-1.7457303"
       transform="matrix(0.6802043,0,0,0.70174486,46.844204,7.0880812)"
       style="fill:#336699;fill-opacity:1" />
    <path
       sodipodi:type="star"
       id="path3853-2"
       sodipodi:sides="3"
       sodipodi:cx="145.58823"
       sodipodi:cy="23.01676"
       sodipodi:r1="10.265916"
       sodipodi:r2="5.1329579"
       sodipodi:arg1="0"
       sodipodi:arg2="1.0471976"
       inkscape:flatsided="false"
       inkscape:rounded="0"
       inkscape:randomized="0"
       d="m 155.85414,23.01676 -7.69943,4.445272 -7.69944,4.445272 0,-8.890544 0,-8.890544 7.69944,4.445272 z"
       inkscape:transform-center-x="1.7457295"
       transform="matrix(-0.6802043,0,0,0.70174486,198.70026,7.0880807)"
       style="fill:#336699;fill-opacity:1" />
    <path
       sodipodi:type="star"
       id="path3853-7"
       sodipodi:sides="3"
       sodipodi:cx="145.58823"
       sodipodi:cy="23.01676"
       sodipodi:r1="10.265916"
       sodipodi:r2="5.1329579"
       sodipodi:arg1="0"
       sodipodi:arg2="1.0471976"
       inkscape:flatsided="false"
       inkscape:rounded="0"
       inkscape:randomized="0"
       d="m 155.85414,23.01676 -7.69943,4.445272 -7.69944,4.445272 0,-8.890544 0,-8.890544 7.69944,4.445272 z"
       transform="matrix(0,0.99821428,-1.0298255,0,146.50837,-78.136199)"
       inkscape:transform-center-y="2.5618966"
       style="fill:#336699;fill-opacity:1" />
  </g>
</svg>
